<?xml version="1.0" encoding="utf-8"?>
<!-- Generator: Adobe Illustrator 26.0.2, SVG Export Plug-In . SVG Version: 6.00 Build 0)  -->
<svg version="1.1" id="Capa_1" xmlns="http://www.w3.org/2000/svg" xmlns:xlink="http://www.w3.org/1999/xlink" x="0px" y="0px"
	 viewBox="0 0 612.85 64" style="enable-background:new 0 0 612.85 64;" xml:space="preserve">
<style type="text/css">
	.st0{clip-path:url(#SVGID_00000067200482670202185870000003008149442231450767_);}
	.st1{enable-background:new    ;}
	.st2{fill:#5C4738;}
	.st3{fill:#FFB500;}
	.st4{fill:#5BC500;}
	.st5{fill:#418FE9;}
</style>
<g>
	<defs>
		<rect id="SVGID_1_" width="613" height="64"/>
	</defs>
	<clipPath id="SVGID_00000132803911024867366950000017294592350958354089_">
		<use xlink:href="#SVGID_1_"  style="overflow:visible;"/>
	</clipPath>
	<g id="Grupo_3285" style="clip-path:url(#SVGID_00000132803911024867366950000017294592350958354089_);">
		<g class="st1">
			<path class="st2" d="M123.3,23.1c0,0.78-0.1,1.56-0.29,2.34c-0.2,0.78-0.52,1.49-0.97,2.14c-0.45,0.65-1.03,1.21-1.75,1.71
				c-0.72,0.5-1.59,0.86-2.61,1.1v0.27c0.9,0.15,1.75,0.41,2.56,0.77c0.81,0.36,1.51,0.85,2.12,1.48c0.6,0.63,1.07,1.4,1.42,2.3
				c0.34,0.9,0.52,1.96,0.52,3.19c0,1.62-0.35,3.02-1.03,4.21c-0.69,1.19-1.61,2.15-2.77,2.9c-1.16,0.75-2.47,1.3-3.94,1.67
				c-1.47,0.36-2.99,0.54-4.54,0.54c-0.51,0-1.16,0-1.96,0c-0.8,0-1.65-0.02-2.56-0.07c-0.92-0.04-1.85-0.11-2.79-0.2
				c-0.95-0.09-1.81-0.22-2.59-0.4V15.99c0.57-0.09,1.22-0.18,1.96-0.27c0.73-0.09,1.52-0.17,2.36-0.22
				c0.84-0.06,1.7-0.11,2.59-0.14c0.88-0.03,1.76-0.04,2.63-0.04c1.47,0,2.9,0.11,4.3,0.34c1.4,0.22,2.64,0.62,3.73,1.19
				c1.09,0.57,1.97,1.37,2.63,2.38C122.97,20.25,123.3,21.54,123.3,23.1z M110.03,29c0.42,0,0.91-0.02,1.46-0.04
				c0.55-0.03,1.01-0.07,1.37-0.13c1.14-0.36,2.12-0.89,2.95-1.6c0.82-0.71,1.24-1.65,1.24-2.81c0-0.77-0.15-1.41-0.45-1.92
				c-0.3-0.5-0.7-0.91-1.19-1.2s-1.06-0.5-1.69-0.62c-0.63-0.12-1.29-0.18-1.98-0.18c-0.78,0-1.5,0.02-2.16,0.04
				c-0.66,0.03-1.17,0.07-1.53,0.13V29H110.03z M112.05,42.54c0.75,0,1.48-0.09,2.18-0.27c0.7-0.18,1.33-0.45,1.87-0.82
				s0.97-0.84,1.31-1.4c0.33-0.56,0.5-1.23,0.5-2c0-0.98-0.2-1.75-0.58-2.32c-0.39-0.56-0.9-1-1.53-1.31s-1.33-0.51-2.11-0.6
				c-0.78-0.09-1.56-0.13-2.34-0.13h-3.28v8.6c0.15,0.06,0.39,0.1,0.72,0.13c0.33,0.03,0.68,0.05,1.06,0.07
				c0.38,0.02,0.77,0.03,1.17,0.04C111.4,42.54,111.75,42.54,112.05,42.54z"/>
		</g>
		<g class="st1">
			<path class="st2" d="M128.57,26.07c1.2-0.54,2.62-0.97,4.27-1.28c1.65-0.32,3.38-0.47,5.17-0.47c1.56,0,2.86,0.19,3.92,0.56
				c1.05,0.38,1.88,0.91,2.5,1.6c0.61,0.69,1.05,1.52,1.31,2.47c0.25,0.96,0.38,2.04,0.38,3.24c0,1.32-0.04,2.65-0.13,3.98
				c-0.09,1.34-0.14,2.65-0.16,3.94c-0.02,1.29,0.02,2.54,0.11,3.76c0.09,1.21,0.32,2.36,0.68,3.44h-4.77l-0.95-3.1h-0.22
				c-0.6,0.93-1.43,1.73-2.5,2.41c-1.07,0.67-2.44,1.01-4.12,1.01c-1.05,0-2-0.16-2.83-0.47c-0.84-0.32-1.56-0.77-2.16-1.35
				s-1.06-1.27-1.4-2.07s-0.49-1.69-0.49-2.68c0-1.38,0.31-2.54,0.92-3.49c0.61-0.95,1.5-1.71,2.65-2.29
				c1.15-0.58,2.54-0.99,4.14-1.21c1.6-0.23,3.4-0.29,5.38-0.2c0.21-1.68,0.09-2.89-0.36-3.62s-1.46-1.1-3.02-1.1
				c-1.17,0-2.41,0.12-3.71,0.36c-1.31,0.24-2.38,0.56-3.22,0.95L128.57,26.07z M135.99,42.81c1.17,0,2.1-0.26,2.79-0.79
				c0.69-0.52,1.2-1.09,1.53-1.69v-2.93c-0.93-0.09-1.82-0.1-2.68-0.04c-0.85,0.06-1.61,0.2-2.27,0.41
				c-0.66,0.21-1.19,0.51-1.58,0.9c-0.39,0.39-0.58,0.88-0.58,1.48c0,0.84,0.25,1.49,0.74,1.96S135.12,42.81,135.99,42.81z"/>
		</g>
		<g class="st1">
			<path class="st2" d="M164.61,47.27V34.49c0-1.83-0.26-3.15-0.79-3.96c-0.52-0.81-1.42-1.21-2.68-1.21
				c-1.11,0-2.05,0.32-2.81,0.97c-0.77,0.65-1.31,1.45-1.64,2.41v14.58h-5.85v-22.5h4.64l0.67,2.97h0.18
				c0.69-0.96,1.6-1.8,2.74-2.52s2.61-1.08,4.41-1.08c1.11,0,2.1,0.15,2.97,0.45c0.87,0.3,1.6,0.79,2.2,1.48
				c0.6,0.69,1.05,1.63,1.35,2.81c0.3,1.19,0.45,2.65,0.45,4.39v14H164.61z"/>
		</g>
		<g class="st1">
			<path class="st2" d="M191.3,45.87c-0.9,0.66-1.99,1.16-3.26,1.51c-1.28,0.34-2.59,0.52-3.94,0.52c-1.8,0-3.32-0.29-4.57-0.85
				c-1.25-0.57-2.26-1.37-3.04-2.41c-0.78-1.04-1.34-2.29-1.69-3.76c-0.35-1.47-0.52-3.09-0.52-4.86c0-3.81,0.85-6.74,2.56-8.8
				c1.71-2.05,4.2-3.08,7.47-3.08c1.65,0,2.98,0.13,3.98,0.41c1,0.27,1.91,0.62,2.72,1.03l-1.4,4.77c-0.69-0.33-1.37-0.58-2.05-0.76
				c-0.68-0.18-1.45-0.27-2.32-0.27c-1.62,0-2.85,0.53-3.69,1.6c-0.84,1.07-1.26,2.77-1.26,5.11c0,0.96,0.1,1.84,0.31,2.66
				c0.21,0.81,0.52,1.51,0.94,2.11c0.42,0.6,0.97,1.07,1.64,1.42c0.67,0.35,1.46,0.52,2.36,0.52c0.99,0,1.83-0.13,2.52-0.38
				c0.69-0.25,1.31-0.56,1.85-0.92L191.3,45.87z"/>
		</g>
		<g class="st1">
			<path class="st2" d="M193.1,36.02c0-3.81,0.93-6.74,2.79-8.8c1.86-2.05,4.47-3.08,7.83-3.08c1.8,0,3.36,0.29,4.68,0.85
				c1.32,0.57,2.41,1.37,3.28,2.41s1.52,2.29,1.96,3.76c0.43,1.47,0.65,3.09,0.65,4.86c0,3.81-0.92,6.74-2.77,8.8
				c-1.85,2.05-4.45,3.08-7.81,3.08c-1.8,0-3.36-0.29-4.68-0.85c-1.32-0.57-2.42-1.37-3.31-2.41c-0.89-1.04-1.55-2.29-1.98-3.76
				C193.31,39.41,193.1,37.79,193.1,36.02z M199.13,36.02c0,0.99,0.09,1.91,0.27,2.75c0.18,0.84,0.45,1.58,0.81,2.21
				c0.36,0.63,0.83,1.12,1.42,1.46c0.58,0.35,1.28,0.52,2.09,0.52c1.53,0,2.67-0.55,3.42-1.67c0.75-1.11,1.12-2.86,1.12-5.26
				c0-2.07-0.35-3.74-1.03-5.02c-0.69-1.27-1.86-1.91-3.51-1.91c-1.44,0-2.56,0.54-3.38,1.62
				C199.53,31.79,199.13,33.56,199.13,36.02z"/>
			<path class="st2" d="M243.59,40.29h-9.68l-2.38,6.97h-6.17l11.34-31.72h4.54l11.34,31.72h-6.48L243.59,40.29z M235.49,35.34h6.75
				l-2.34-7.02l-0.95-4.95h-0.22l-0.95,4.99L235.49,35.34z"/>
			<path class="st2" d="M273.33,47.27c0,3.27-0.89,5.68-2.66,7.22c-1.77,1.54-4.25,2.32-7.42,2.32c-2.16,0-3.86-0.15-5.11-0.45
				c-1.25-0.3-2.18-0.62-2.81-0.95l1.21-4.63c0.69,0.27,1.49,0.54,2.41,0.81c0.91,0.27,2.05,0.4,3.4,0.4c2.04,0,3.43-0.44,4.16-1.33
				c0.73-0.88,1.1-2.12,1.1-3.71v-1.44h-0.18c-1.05,1.41-2.91,2.12-5.58,2.12c-2.91,0-5.08-0.9-6.5-2.7
				c-1.43-1.8-2.14-4.62-2.14-8.46c0-4.02,0.96-7.07,2.88-9.13c1.92-2.07,4.71-3.11,8.37-3.11c1.92,0,3.64,0.13,5.15,0.41
				c1.51,0.27,2.75,0.58,3.71,0.94V47.27z M263.43,42.95c1.14,0,2.02-0.25,2.63-0.76c0.61-0.51,1.09-1.27,1.42-2.29V29.76
				c-0.93-0.39-2.09-0.58-3.46-0.58c-1.5,0-2.67,0.56-3.51,1.69c-0.84,1.12-1.26,2.92-1.26,5.38c0,2.19,0.36,3.86,1.08,5
				C261.05,42.38,262.08,42.95,263.43,42.95z"/>
			<path class="st2" d="M290.84,30.26c-0.93-0.33-1.77-0.5-2.52-0.5c-1.05,0-1.93,0.28-2.63,0.83c-0.71,0.56-1.18,1.27-1.42,2.14
				v14.54h-5.85v-22.5h4.54l0.68,2.97h0.18c0.51-1.11,1.2-1.96,2.07-2.56c0.87-0.6,1.89-0.9,3.06-0.9c0.78,0,1.66,0.17,2.65,0.5
				L290.84,30.26z"/>
			<path class="st2" d="M294.08,26.07c1.2-0.54,2.62-0.97,4.27-1.28c1.65-0.32,3.38-0.47,5.17-0.47c1.56,0,2.86,0.19,3.92,0.56
				c1.05,0.38,1.88,0.91,2.5,1.6c0.61,0.69,1.05,1.52,1.31,2.47c0.25,0.96,0.38,2.04,0.38,3.24c0,1.32-0.04,2.65-0.13,3.98
				c-0.09,1.34-0.14,2.65-0.16,3.94c-0.02,1.29,0.02,2.54,0.11,3.76c0.09,1.21,0.32,2.36,0.68,3.44h-4.77l-0.95-3.1h-0.22
				c-0.6,0.93-1.43,1.73-2.5,2.41c-1.07,0.67-2.44,1.01-4.12,1.01c-1.05,0-2-0.16-2.83-0.47c-0.84-0.32-1.56-0.77-2.16-1.35
				s-1.06-1.27-1.4-2.07s-0.49-1.69-0.49-2.68c0-1.38,0.31-2.54,0.92-3.49c0.61-0.95,1.5-1.71,2.65-2.29
				c1.15-0.58,2.54-0.99,4.14-1.21c1.6-0.23,3.4-0.29,5.38-0.2c0.21-1.68,0.09-2.89-0.36-3.62s-1.46-1.1-3.02-1.1
				c-1.17,0-2.41,0.12-3.71,0.36c-1.31,0.24-2.38,0.56-3.22,0.95L294.08,26.07z M301.5,42.81c1.17,0,2.1-0.26,2.79-0.79
				c0.69-0.52,1.2-1.09,1.53-1.69v-2.93c-0.93-0.09-1.82-0.1-2.68-0.04c-0.85,0.06-1.61,0.2-2.27,0.41
				c-0.66,0.21-1.19,0.51-1.58,0.9c-0.39,0.39-0.58,0.88-0.58,1.48c0,0.84,0.25,1.49,0.74,1.96S300.63,42.81,301.5,42.81z"/>
			<path class="st2" d="M328.95,30.26c-0.93-0.33-1.77-0.5-2.52-0.5c-1.05,0-1.93,0.28-2.63,0.83c-0.71,0.56-1.18,1.27-1.42,2.14
				v14.54h-5.85v-22.5h4.54l0.68,2.97h0.18c0.51-1.11,1.2-1.96,2.07-2.56c0.87-0.6,1.89-0.9,3.06-0.9c0.78,0,1.66,0.17,2.65,0.5
				L328.95,30.26z"/>
			<path class="st2" d="M332.01,18.42c0-0.87,0.32-1.61,0.97-2.23s1.54-0.92,2.68-0.92c1.14,0,2.06,0.31,2.77,0.92
				c0.7,0.62,1.06,1.36,1.06,2.23s-0.35,1.6-1.06,2.18c-0.71,0.58-1.63,0.88-2.77,0.88c-1.14,0-2.03-0.29-2.68-0.88
				S332.01,19.29,332.01,18.42z M332.87,24.77h5.85v22.5h-5.85V24.77z"/>
			<path class="st2" d="M343.35,36.02c0-3.81,0.93-6.74,2.79-8.8c1.86-2.05,4.47-3.08,7.83-3.08c1.8,0,3.36,0.29,4.68,0.85
				c1.32,0.57,2.41,1.37,3.28,2.41s1.52,2.29,1.96,3.76c0.43,1.47,0.65,3.09,0.65,4.86c0,3.81-0.92,6.74-2.77,8.8
				c-1.85,2.05-4.45,3.08-7.81,3.08c-1.8,0-3.36-0.29-4.68-0.85c-1.32-0.57-2.42-1.37-3.31-2.41c-0.89-1.04-1.55-2.29-1.98-3.76
				C343.57,39.41,343.35,37.79,343.35,36.02z M349.38,36.02c0,0.99,0.09,1.91,0.27,2.75c0.18,0.84,0.45,1.58,0.81,2.21
				c0.36,0.63,0.83,1.12,1.42,1.46c0.58,0.35,1.28,0.52,2.09,0.52c1.53,0,2.67-0.55,3.42-1.67c0.75-1.11,1.12-2.86,1.12-5.26
				c0-2.07-0.35-3.74-1.03-5.02c-0.69-1.27-1.86-1.91-3.51-1.91c-1.44,0-2.56,0.54-3.38,1.62
				C349.79,31.79,349.38,33.56,349.38,36.02z"/>
			<path class="st2" d="M399.1,39.35c0,1.26,0.01,2.52,0.04,3.78c0.03,1.26,0.16,2.65,0.41,4.18h-4.19l-0.81-2.92h-0.18
				c-0.6,1.05-1.46,1.9-2.59,2.54c-1.12,0.65-2.45,0.97-3.98,0.97c-2.82,0-5.01-0.93-6.57-2.79c-1.56-1.86-2.34-4.77-2.34-8.73
				c0-3.84,0.87-6.83,2.61-8.96c1.74-2.13,4.29-3.2,7.65-3.2c0.93,0,1.69,0.05,2.29,0.16c0.6,0.11,1.2,0.28,1.8,0.52v-9.13h5.85
				V39.35z M389.16,42.95c1.14,0,2.04-0.28,2.7-0.83c0.66-0.55,1.12-1.36,1.4-2.41v-9.54c-0.42-0.33-0.89-0.58-1.4-0.74
				c-0.51-0.16-1.17-0.25-1.98-0.25c-1.65,0-2.89,0.56-3.71,1.67c-0.83,1.11-1.24,3.01-1.24,5.71c0,1.92,0.34,3.46,1.01,4.63
				C386.62,42.36,387.69,42.95,389.16,42.95z"/>
			<path class="st2" d="M422.23,45.33c-0.9,0.72-2.12,1.33-3.67,1.82c-1.55,0.5-3.19,0.74-4.93,0.74c-3.63,0-6.29-1.06-7.97-3.17
				c-1.68-2.11-2.52-5.02-2.52-8.71c0-3.96,0.95-6.93,2.83-8.91c1.89-1.98,4.55-2.97,7.97-2.97c1.14,0,2.25,0.15,3.33,0.45
				c1.08,0.3,2.04,0.79,2.88,1.48c0.84,0.69,1.51,1.62,2.02,2.79c0.51,1.17,0.77,2.63,0.77,4.37c0,0.63-0.04,1.3-0.11,2.03
				c-0.08,0.72-0.19,1.47-0.34,2.25H409c0.09,1.89,0.58,3.31,1.46,4.27c0.88,0.96,2.32,1.44,4.3,1.44c1.23,0,2.33-0.19,3.31-0.56
				c0.97-0.38,1.72-0.76,2.23-1.15L422.23,45.33z M413.86,28.82c-1.53,0-2.66,0.46-3.4,1.37c-0.74,0.92-1.18,2.14-1.33,3.67h8.37
				c0.12-1.62-0.13-2.86-0.74-3.73C416.15,29.25,415.18,28.82,413.86,28.82z"/>
			<path class="st2" d="M459.36,45.98c-0.96,0.68-2.18,1.17-3.67,1.47c-1.48,0.3-3.01,0.45-4.57,0.45c-1.89,0-3.68-0.29-5.38-0.88
				c-1.7-0.58-3.19-1.53-4.48-2.83c-1.29-1.31-2.32-3-3.08-5.09c-0.77-2.08-1.15-4.61-1.15-7.58c0-3.09,0.43-5.68,1.28-7.76
				c0.85-2.08,1.96-3.76,3.33-5.04c1.37-1.27,2.89-2.19,4.57-2.75c1.68-0.55,3.36-0.83,5.04-0.83c1.8,0,3.32,0.12,4.57,0.36
				c1.24,0.24,2.27,0.52,3.08,0.85l-1.21,5.22c-0.69-0.33-1.51-0.57-2.45-0.72c-0.95-0.15-2.09-0.22-3.44-0.22
				c-2.49,0-4.49,0.89-6.01,2.66c-1.52,1.77-2.27,4.52-2.27,8.25c0,1.62,0.18,3.1,0.54,4.44c0.36,1.34,0.91,2.48,1.64,3.43
				c0.73,0.95,1.65,1.68,2.75,2.21c1.09,0.53,2.36,0.79,3.8,0.79c1.35,0,2.49-0.13,3.42-0.4c0.93-0.27,1.74-0.62,2.43-1.04
				L459.36,45.98z"/>
			<path class="st2" d="M460.35,36.02c0-3.81,0.93-6.74,2.79-8.8c1.86-2.05,4.47-3.08,7.83-3.08c1.8,0,3.36,0.29,4.68,0.85
				c1.32,0.57,2.41,1.37,3.28,2.41s1.52,2.29,1.96,3.76c0.43,1.47,0.65,3.09,0.65,4.86c0,3.81-0.92,6.74-2.77,8.8
				c-1.85,2.05-4.45,3.08-7.81,3.08c-1.8,0-3.36-0.29-4.68-0.85c-1.32-0.57-2.42-1.37-3.31-2.41c-0.89-1.04-1.55-2.29-1.98-3.76
				C460.57,39.41,460.35,37.79,460.35,36.02z M466.38,36.02c0,0.99,0.09,1.91,0.27,2.75c0.18,0.84,0.45,1.58,0.81,2.21
				c0.36,0.63,0.83,1.12,1.42,1.46c0.58,0.35,1.28,0.52,2.09,0.52c1.53,0,2.67-0.55,3.42-1.67c0.75-1.11,1.12-2.86,1.12-5.26
				c0-2.07-0.35-3.74-1.03-5.02c-0.69-1.27-1.86-1.91-3.51-1.91c-1.44,0-2.56,0.54-3.38,1.62
				C466.78,31.79,466.38,33.56,466.38,36.02z"/>
			<path class="st2" d="M491.62,39.71c0,1.05,0.13,1.82,0.4,2.29s0.7,0.72,1.31,0.72c0.36,0,0.71-0.03,1.06-0.09
				c0.34-0.06,0.77-0.2,1.28-0.41l0.63,4.59c-0.48,0.24-1.21,0.48-2.21,0.72c-0.99,0.24-2.01,0.36-3.06,0.36
				c-1.71,0-3.01-0.4-3.91-1.19c-0.9-0.79-1.35-2.11-1.35-3.94v-27h5.85V39.71z"/>
			<path class="st2" d="M497.74,36.02c0-3.81,0.93-6.74,2.79-8.8c1.86-2.05,4.47-3.08,7.83-3.08c1.8,0,3.36,0.29,4.68,0.85
				c1.32,0.57,2.41,1.37,3.28,2.41s1.52,2.29,1.96,3.76c0.43,1.47,0.65,3.09,0.65,4.86c0,3.81-0.92,6.74-2.77,8.8
				c-1.85,2.05-4.45,3.08-7.81,3.08c-1.8,0-3.36-0.29-4.68-0.85c-1.32-0.57-2.42-1.37-3.31-2.41c-0.89-1.04-1.55-2.29-1.98-3.76
				C497.96,39.41,497.74,37.79,497.74,36.02z M503.77,36.02c0,0.99,0.09,1.91,0.27,2.75c0.18,0.84,0.45,1.58,0.81,2.21
				c0.36,0.63,0.83,1.12,1.42,1.46c0.58,0.35,1.28,0.52,2.09,0.52c1.53,0,2.67-0.55,3.42-1.67c0.75-1.11,1.12-2.86,1.12-5.26
				c0-2.07-0.35-3.74-1.03-5.02c-0.69-1.27-1.86-1.91-3.51-1.91c-1.44,0-2.56,0.54-3.38,1.62
				C504.18,31.79,503.77,33.56,503.77,36.02z"/>
			<path class="st2" d="M535.77,47.27V35.03c0-2.07-0.2-3.54-0.59-4.41c-0.39-0.87-1.2-1.3-2.43-1.3c-1.02,0-1.85,0.28-2.48,0.83
				c-0.63,0.55-1.11,1.27-1.44,2.14v14.99h-5.85v-22.5h4.54l0.68,2.97h0.18c0.69-0.96,1.57-1.8,2.63-2.52
				c1.06-0.72,2.44-1.08,4.12-1.08c1.44,0,2.62,0.29,3.53,0.88c0.91,0.58,1.63,1.57,2.14,2.95c0.69-1.17,1.58-2.1,2.66-2.79
				s2.38-1.04,3.92-1.04c1.26,0,2.33,0.15,3.22,0.45c0.88,0.3,1.6,0.82,2.16,1.55c0.55,0.74,0.97,1.72,1.24,2.95
				s0.41,2.79,0.41,4.68v13.5h-5.85V34.62c0-1.77-0.19-3.1-0.56-3.98c-0.38-0.88-1.21-1.33-2.5-1.33c-1.05,0-1.88,0.29-2.5,0.86
				c-0.62,0.57-1.07,1.35-1.37,2.34v14.76H535.77z"/>
			<path class="st2" d="M559.21,15.77h5.85v10.8h0.18c0.63-0.72,1.44-1.29,2.43-1.71c0.99-0.42,2.08-0.63,3.29-0.63
				c2.7,0,4.76,0.92,6.19,2.77c1.42,1.84,2.14,4.66,2.14,8.44c0,4.05-1,7.12-2.99,9.22c-2,2.1-4.73,3.15-8.21,3.15
				c-1.92,0-3.68-0.16-5.27-0.47c-1.59-0.31-2.79-0.67-3.6-1.06V15.77z M569.25,29.18c-1.08,0-1.96,0.28-2.63,0.83
				c-0.67,0.56-1.19,1.36-1.55,2.41v9.81c0.48,0.24,1,0.41,1.55,0.5s1.15,0.13,1.78,0.13c1.59,0,2.8-0.58,3.62-1.73
				c0.82-1.15,1.24-2.99,1.24-5.51C573.25,31.32,571.92,29.18,569.25,29.18z"/>
			<path class="st2" d="M583.02,18.42c0-0.87,0.32-1.61,0.97-2.23s1.54-0.92,2.68-0.92c1.14,0,2.06,0.31,2.77,0.92
				c0.7,0.62,1.06,1.36,1.06,2.23s-0.35,1.6-1.06,2.18c-0.71,0.58-1.63,0.88-2.77,0.88c-1.14,0-2.03-0.29-2.68-0.88
				S583.02,19.29,583.02,18.42z M583.87,24.77h5.85v22.5h-5.85V24.77z"/>
			<path class="st2" d="M595.3,26.07c1.2-0.54,2.62-0.97,4.27-1.28c1.65-0.32,3.38-0.47,5.17-0.47c1.56,0,2.86,0.19,3.92,0.56
				c1.05,0.38,1.88,0.91,2.5,1.6c0.61,0.69,1.05,1.52,1.31,2.47c0.25,0.96,0.38,2.04,0.38,3.24c0,1.32-0.04,2.65-0.13,3.98
				c-0.09,1.34-0.14,2.65-0.16,3.94c-0.02,1.29,0.02,2.54,0.11,3.76c0.09,1.21,0.32,2.36,0.68,3.44h-4.77l-0.95-3.1h-0.22
				c-0.6,0.93-1.43,1.73-2.5,2.41c-1.07,0.67-2.44,1.01-4.12,1.01c-1.05,0-2-0.16-2.83-0.47c-0.84-0.32-1.56-0.77-2.16-1.35
				s-1.06-1.27-1.4-2.07s-0.49-1.69-0.49-2.68c0-1.38,0.31-2.54,0.92-3.49c0.61-0.95,1.5-1.71,2.65-2.29
				c1.15-0.58,2.54-0.99,4.14-1.21c1.6-0.23,3.4-0.29,5.38-0.2c0.21-1.68,0.09-2.89-0.36-3.62s-1.46-1.1-3.02-1.1
				c-1.17,0-2.41,0.12-3.71,0.36c-1.31,0.24-2.38,0.56-3.22,0.95L595.3,26.07z M602.73,42.81c1.17,0,2.1-0.26,2.79-0.79
				c0.69-0.52,1.2-1.09,1.53-1.69v-2.93c-0.93-0.09-1.82-0.1-2.68-0.04c-0.85,0.06-1.61,0.2-2.27,0.41
				c-0.66,0.21-1.19,0.51-1.58,0.9c-0.39,0.39-0.58,0.88-0.58,1.48c0,0.84,0.25,1.49,0.74,1.96S601.86,42.81,602.73,42.81z"/>
		</g>
		<g id="Grupo_5805" transform="translate(-0.001 0)">
			<path id="Trazado_9244" class="st3" d="M55.71,11.13c-0.01,6.14-5.36,11.11-11.96,11.09s-11.93-4.99-11.92-11.13
				S37.2-0.01,43.79,0S55.72,4.99,55.71,11.13"/>
			<path id="Trazado_9245" class="st4" d="M79.59,11.93c-0.17-1.47-1.49-2.54-2.97-2.39c-0.52,0.03-1.03,0.2-1.46,0.5
				c-0.03,0.02-0.15,0.11-0.15,0.11c-11.36,8.28-21.83,17.72-31.24,28.16c-9.42-10.45-19.89-19.89-31.26-28.18
				c-0.04-0.03-0.09-0.07-0.13-0.1c-0.43-0.3-0.94-0.47-1.46-0.5c-1.48-0.15-2.8,0.92-2.97,2.39C7.92,12.35,8,12.79,8.19,13.18
				c0,0.01,0.13,0.23,0.13,0.24c7.3,12.98,16.06,25.08,26.12,36.06c1.61,1.76,3.25,3.49,4.92,5.19c2.48,2.42,6.45,2.38,8.89-0.09
				c1.65-1.67,3.26-3.37,4.84-5.11C63.15,38.5,71.91,26.4,79.21,13.42c0-0.01,0.13-0.23,0.13-0.24
				C79.54,12.79,79.62,12.36,79.59,11.93"/>
			<path id="Trazado_9246" class="st5" d="M58.57,56.25c2.77-5.5,6.51-10.45,11.05-14.61c4.32-3.98,9.25-7.25,14.61-9.66
				c0.03-0.02,0.07-0.03,0.1-0.04c0.24-0.1,0.49-0.15,0.75-0.17c1.22-0.12,2.32,0.76,2.46,1.99c0.03,0.39-0.05,0.78-0.24,1.12
				l-0.06,0.1c-2.87,4.88-6.41,9.35-10.5,13.27c-4.39,4.22-9.35,7.8-14.74,10.64c-0.53,0.35-1.19,0.48-1.81,0.35
				c-0.98-0.16-1.72-0.95-1.81-1.94C58.33,56.93,58.4,56.56,58.57,56.25 M28.98,56.25c-2.77-5.5-6.51-10.45-11.06-14.62
				c-4.32-3.98-9.25-7.25-14.61-9.66c-0.03-0.02-0.07-0.03-0.1-0.04c-0.24-0.1-0.49-0.15-0.75-0.17c-1.22-0.12-2.32,0.77-2.46,1.99
				c-0.03,0.39,0.05,0.78,0.24,1.12l0.06,0.1c2.87,4.88,6.41,9.35,10.5,13.27c4.39,4.22,9.35,7.8,14.74,10.64
				c0.53,0.35,1.19,0.48,1.81,0.35c0.98-0.16,1.72-0.95,1.81-1.94C29.22,56.93,29.15,56.56,28.98,56.25"/>
		</g>
	</g>
</g>
</svg>
